<?xml version="1.0" standalone="no"?>
<!DOCTYPE svg PUBLIC "-//W3C//DTD SVG 20010904//EN"
 "http://www.w3.org/TR/2001/REC-SVG-20010904/DTD/svg10.dtd">
<svg version="1.0" xmlns="http://www.w3.org/2000/svg"
 width="260.000000pt" height="260.000000pt" viewBox="0 0 260.000000 260.000000"
 preserveAspectRatio="xMidYMid meet">
<metadata>
Created by potrace 1.14, written by Peter Selinger 2001-2017
</metadata>
<g transform="translate(0.000000,260.000000) scale(0.100000,-0.100000)"
fill="#000000" stroke="none">
<path d="M417 1945 c-137 -35 -245 -116 -294 -220 -25 -53 -28 -71 -28 -160 0
-89 3 -106 28 -157 45 -91 132 -156 257 -192 30 -8 118 -24 195 -36 157 -23
229 -51 258 -99 35 -60 11 -141 -55 -180 -47 -30 -154 -45 -222 -32 -68 13
-110 31 -157 70 -36 30 -99 135 -99 165 0 9 -3 16 -7 16 -9 0 -267 -81 -271
-85 -1 -1 7 -29 19 -61 63 -170 191 -275 393 -319 61 -14 107 -16 210 -12 198
7 307 47 401 148 73 78 90 124 90 249 0 94 -3 111 -28 161 -66 136 -205 208
-467 244 -136 18 -187 35 -222 73 -98 105 37 241 215 218 102 -14 178 -71 219
-164 11 -24 25 -42 31 -39 7 2 63 21 126 42 62 21 115 44 118 51 9 24 -52 130
-107 185 -58 59 -105 88 -200 121 -74 27 -316 35 -403 13z"/>
<path d="M1800 1945 c-329 -90 -531 -395 -492 -744 27 -234 139 -408 321 -500
103 -51 169 -64 300 -59 86 3 116 9 156 28 65 31 135 105 177 186 l33 64 46 0
46 0 -23 -49 c-26 -53 -54 -152 -54 -188 0 -23 1 -23 130 -23 l130 0 0 330 0
330 -345 0 -345 0 0 -120 0 -120 204 0 205 0 -11 -32 c-7 -18 -35 -56 -63 -84
-66 -66 -129 -89 -245 -89 -71 0 -94 4 -142 27 -156 73 -237 227 -225 428 14
241 162 395 378 393 138 -1 248 -71 304 -194 21 -47 30 -59 43 -54 15 6 168
63 229 86 l23 8 -21 53 c-54 139 -172 247 -327 301 -79 28 -100 31 -232 34
-105 2 -160 -1 -200 -12z"/>
</g>
</svg>
